#!OML:ASF G:\JayActor3\Patient Classification 1\Patient 1\Session 5\male.ASF
:FULLY-SPECIFIED
:DEGREES
782
root -24.9515 17.5508 -6.71035 1103.57 -83.5495 -1106.74
lowerback 1.49286 -1.98428 3.06143
upperback 0.351564 -2.60117 0.26632
thorax -0.599504 -1.30688 -1.38612
lowerneck -6.62557 -0.304596 0.835473
upperneck 12.8331 -0.805416 1.34176
head 4.94516 -0.318886 0.224154
rclavicle 1.38249e-014 -2.68359e-015
rhumerus -36.0583 -14.2296 -80.2845
rradius 19.4309
rwrist 10.3495
rhand -19.8114 -10.6029
rfingers 7.12502
rthumb 6.52189 -40.4825
lclavicle 1.38249e-014 -2.68359e-015
lhumerus -34.303 10.6658 81.2872
lradius 23.6564
lwrist 14.8509
lhand -16.9158 13.0573
lfingers 7.12502
lthumb 9.31661 42.8315
rfemur -16.6931 -0.804263 27.813
rtibia 36.1361
rfoot -2.436 -7.34449
rtoes -5.02748
lfemur 14.2971 4.82747 -13.167
ltibia 36.4039
lfoot 31.9878 -3.042
ltoes -13.7439
783
root -25.0966 17.5634 -6.71606 1105.15 -83.5793 -1108.38
lowerback 1.53327 -1.89955 3.25232
upperback 0.409814 -2.48547 0.298291
thorax -0.563585 -1.24846 -1.46255
lowerneck -6.61704 -0.316433 0.837857
upperneck 12.7538 -0.818844 1.34617
head 4.9193 -0.324925 0.224447
rclavicle -2.66465e-014 7.55382e-015
rhumerus -35.8053 -13.9926 -80.5272
rradius 19.5477
rwrist 10.0618
rhand -19.8156 -10.4754
rfingers 7.12502
rthumb 6.51779 -40.3551
lclavicle -2.66465e-014 7.55382e-015
lhumerus -34.419 10.7421 81.2224
lradius 23.5295
lwrist 14.8099
lhand -16.9011 12.8149
lfingers 7.12502
lthumb 9.33072 42.5884
rfemur -16.0098 -0.826593 28.0582
rtibia 35.9868
rfoot -2.62722 -7.25906
rtoes -4.81767
lfemur 12.7563 4.50791 -13.111
ltibia 38.5313
lfoot 30.3488 -3.5869
ltoes -14.4153
784
root -25.2388 17.5758 -6.72163 1106.52 -83.6243 -1109.8
lowerback 1.56197 -1.81475 3.4013
upperback 0.470959 -2.37084 0.324676
thorax -0.516098 -1.19019 -1.52181
lowerneck -6.62194 -0.322096 0.850553
upperneck 12.6765 -0.823843 1.34047
head 4.89626 -0.326838 0.220418
rclavicle 4.14963e-015 -9.93923e-016
rhumerus -35.5357 -13.7148 -80.7906
rradius 19.6954
rwrist 9.77427
rhand -19.8287 -10.344
rfingers 7.12502
rthumb 6.50517 -40.2241
lclavicle 4.14963e-015 -9.93923e-016
lhumerus -34.516 10.7832 81.1781
lradius 23.4302
lwrist 14.7451
lhand -16.8544 12.6278
lfingers 7.12502
lthumb 9.37581 42.3993
rfemur -15.3745 -0.815113 28.2632
rtibia 35.8661
rfoot -2.78558 -7.18801
rtoes -4.53848
lfemur 11.2124 4.20415 -13.0959
ltibia 40.4947
lfoot 28.4655 -4.04042
ltoes -15.3381
785
root -25.3783 17.5884 -6.72612 1107.65 -83.6753 -1110.97
lowerback 1.58115 -1.7359 3.52078
upperback 0.534219 -2.2651 0.343022
thorax -0.460284 -1.13606 -1.57297
lowerneck -6.62023 -0.321275 0.879153
upperneck 12.5911 -0.81936 1.31773
head 4.86947 -0.324477 0.209127
rclavicle -8.88319e-015 9.93923e-017
rhumerus -35.2568 -13.3952 -81.0727
rradius 19.8732
rwrist 9.48551
rhand -19.8464 -10.2318
rfingers 7.12502
rthumb 6.48807 -40.1124
lclavicle -8.88319e-015 9.93923e-017
lhumerus -34.6068 10.7995 81.1467
lradius 23.364
lwrist 14.6596
lhand -16.7562 12.5668
lfingers 7.12502
lthumb 9.47056 42.334
rfemur -14.7742 -0.809556 28.4249
rtibia 35.7648
rfoot -2.90307 -7.11768
rtoes -4.2405
lfemur 9.6717 3.90608 -13.1255
ltibia 42.2968
lfoot 26.4422 -4.34056
ltoes -16.2971
786
root -25.5154 17.6014 -6.72924 1108.71 -83.7236 -1112.06
lowerback 1.58977 -1.6615 3.64265
upperback 0.600652 -2.16588 0.356805
thorax -0.395531 -1.08488 -1.63031
lowerneck -6.61715 -0.316103 0.918801
upperneck 12.5032 -0.808517 1.28213
head 4.84155 -0.319291 0.192452
rclavicle 1.82199e-014 -3.8763e-015
rhumerus -34.9725 -13.0416 -81.3704
rradius 20.0884
rwrist 9.18107
rhand -19.8707 -10.1494
rfingers 7.12502
rthumb 6.46464 -40.0308
lclavicle 1.82199e-014 -3.8763e-015
lhumerus -34.6863 10.7957 81.126
lradius 23.3282
lwrist 14.5635
lhand -16.6856 12.5063
lfingers 7.12502
lthumb 9.5387 42.2704
rfemur -14.2062 -0.821909 28.5685
rtibia 35.6753
rfoot -2.98614 -7.05404
rtoes -3.89496
lfemur 8.13295 3.61086 -13.1752
ltibia 43.9388
lfoot 24.3208 -4.4241
ltoes -17.2294
787
root -25.6506 17.6148 -6.73103 1109.82 -83.7648 -1113.18
lowerback 1.59768 -1.58698 3.7827
upperback 0.674948 -2.06668 0.369766
thorax -0.322568 -1.03337 -1.69873
lowerneck -6.62501 -0.314132 0.961414
upperneck 12.4135 -0.800718 1.2344
head 4.8149 -0.316083 0.171353
rclavicle -7.69048e-015 -3.47873e-015
rhumerus -34.6822 -12.6604 -81.6771
rradius 20.3434
rwrist 8.84876
rhand -19.9101 -10.1004
rfingers 7.12502
rthumb 6.4266 -39.9829
lclavicle -7.69048e-015 -3.47873e-015
lhumerus -34.747 10.7773 81.1184
lradius 23.3178
lwrist 14.4569
lhand -16.6482 12.4401
lfingers 7.12502
lthumb 9.57475 42.2026
rfemur -13.6539 -0.861851 28.7091
rtibia 35.5879
rfoot -3.03292 -6.99279
rtoes -3.55045
lfemur 6.60959 3.31318 -13.23
ltibia 45.4226
lfoot 22.1582 -4.30659
ltoes -18.0497
788
root -25.7838 17.6283 -6.73152 1110.9 -83.8011 -1114.29
lowerback 1.61542 -1.51226 3.93522
upperback 0.748053 -1.96668 0.379239
thorax -0.256353 -0.981428 -1.7773
lowerneck -6.63097 -0.316401 0.992259
upperneck 12.3279 -0.798513 1.19421
head 4.78928 -0.315736 0.154177
rclavicle -4.94787e-015 -1.88845e-015
rhumerus -34.4035 -12.2646 -81.9827
rradius 20.6343
rwrist 8.48123
rhand -19.9606 -10.0794
rfingers 7.12502
rthumb 6.37787 -39.9634
lclavicle -4.94787e-015 -1.88845e-015
lhumerus -34.8036 10.7327 81.1244
lradius 23.3336
lwrist 14.3681
lhand -16.6498 12.3666
lfingers 7.12502
lthumb 9.57327 42.1291
rfemur -13.1129 -0.937177 28.8404
rtibia 35.4945
rfoot -3.043 -6.93587
rtoes -3.22919
lfemur 5.10056 3.00734 -13.2966
ltibia 46.7515
lfoot 20.0035 -3.99689
ltoes -18.6865
789
root -25.9153 17.6413 -6.73114 1112.17 -83.8276 -1115.58
lowerback 1.6547 -1.43697 4.11268
upperback 0.812094 -1.86442 0.393785
thorax -0.211424 -0.9287 -1.86385
lowerneck -6.62671 -0.321597 1.00466
upperneck 12.2504 -0.800539 1.16964
head 4.76458 -0.317483 0.1446
rclavicle 7.99021e-015 -2.98177e-015
rhumerus -34.1471 -11.8505 -82.2814
rradius 20.9533
rwrist 8.06742
rhand -20.0341 -10.0569
rfingers 7.12502
rthumb 6.30693 -39.943
lclavicle 7.99021e-015 -2.98177e-015
lhumerus -34.8683 10.6761 81.1365
lradius 23.3714
lwrist 14.303
lhand -16.6827 12.2909
lfingers 7.12502
lthumb 9.54151 42.0548
rfemur -12.5765 -1.04797 28.9912
rtibia 35.3874
rfoot -3.01409 -6.8852
rtoes -3.06715
lfemur 3.6055 2.70167 -13.3442
ltibia 47.9322
lfoot 17.8384 -3.53156
ltoes -19.3763
790
root -26.0452 17.6532 -6.72995 1113.71 -83.8375 -1117.13
lowerback 1.71857 -1.36283 4.3236
upperback 0.860147 -1.7615 0.417327
thorax -0.196725 -0.876299 -1.95901
lowerneck -6.60386 -0.328131 1.00053
upperneck 12.1865 -0.805126 1.16136
head 4.74102 -0.320469 0.142616
rclavicle -1.06334e-014 -3.97569e-016
rhumerus -33.9278 -11.4172 -82.5704
rradius 21.3019
rwrist 7.61001
rhand -20.1209 -10.0323
rfingers 7.12502
rthumb 6.22311 -39.9209
lclavicle -1.06334e-014 -3.97569e-016
lhumerus -34.9551 10.612 81.1491
lradius 23.4301
lwrist 14.2751
lhand -16.7374 12.221
lfingers 7.12502
lthumb 9.48875 41.9874
rfemur -12.041 -1.19548 29.1741
rtibia 35.262
rfoot -2.96151 -6.84349
rtoes -3.049
lfemur 2.12543 2.39818 -13.3565
ltibia 48.9688
lfoot 15.6949 -2.95137
ltoes -20.158
791
root -26.1734 17.6636 -6.72776 1115.59 -83.8245 -1119.03
lowerback 1.80498 -1.29297 4.57626
upperback 0.88605 -1.66157 0.452744
thorax -0.217692 -0.826355 -2.06448
lowerneck -6.55496 -0.330241 0.991673
upperneck 12.1358 -0.804946 1.16255
head 4.71721 -0.321051 0.144637
rclavicle -5.11249e-015 -3.08116e-015
rhumerus -33.7557 -10.974 -82.8439
rradius 21.6779
rwrist 7.14087
rhand -20.2004 -10.0144
rfingers 7.12502
rthumb 6.14635 -39.9053
lclavicle -5.11249e-015 -3.08116e-015
lhumerus -35.0769 10.5568 81.151
lradius 23.5083
lwrist 14.2822
lhand -16.8025 12.1589
lfingers 7.12502
lthumb 9.42594 41.9281
rfemur -11.5075 -1.38069 29.3987
rtibia 35.116
rfoot -2.89329 -6.80572
rtoes -3.26493
lfemur 0.658594 2.09896 -13.3205
ltibia 49.8631
lfoot 13.5773 -2.30692
ltoes -21.12
792
root -26.3007 17.6722 -6.72489 1117.8 -83.7896 -1121.25
lowerback 1.90551 -1.22519 4.86416
upperback 0.900531 -1.56232 0.499631
thorax -0.258153 -0.777397 -2.17756
lowerneck -6.50078 -0.329202 0.979861
upperneck 12.1028 -0.801539 1.16889
head 4.69798 -0.319956 0.148897
rclavicle 2.36569e-014 -1.08338e-014
rhumerus -33.615 -10.5231 -83.1059
rradius 22.0778
rwrist 6.65357
rhand -20.2675 -10.0157
rfingers 7.12502
rthumb 6.08153 -39.9084
lclavicle 2.36569e-014 -1.08338e-014
lhumerus -35.2153 10.5109 81.1464
lradius 23.6005
lwrist 14.3284
lhand -16.8693 12.1106
lfingers 7.12502
lthumb 9.36145 41.8827
rfemur -10.9682 -1.58993 29.6628
rtibia 34.9523
rfoot -2.82322 -6.76893
rtoes -3.68837
lfemur -0.78444 1.8105 -13.2347
ltibia 50.6129
lfoot 11.5057 -1.6221
ltoes -22.1593
793
root -26.4277 17.6792 -6.72117 1120.07 -83.7389 -1123.53
lowerback 2.00894 -1.16383 5.16311
upperback 0.910631 -1.47055 0.54959
thorax -0.304666 -0.732507 -2.29358
lowerneck -6.43125 -0.324583 0.976213
upperneck 12.0716 -0.793694 1.17036
head 4.67668 -0.316774 0.150599
rclavicle 1.58655e-014 -8.94531e-016
rhumerus -33.4952 -10.0706 -83.3593
rradius 22.4889
rwrist 6.16209
rhand -20.3205 -10.0339
rfingers 7.12502
rthumb 6.03041 -39.928
lclavicle 1.58655e-014 -8.94531e-016
lhumerus -35.3685 10.4788 81.1304
lradius 23.709
lwrist 14.4067
lhand -16.9207 12.0871
lfingers 7.12502
lthumb 9.31183 41.8614
rfemur -10.4186 -1.83176 29.9352
rtibia 34.7773
rfoot -2.77744 -6.72393
rtoes -4.23452
lfemur -2.19166 1.52426 -13.1305
ltibia 51.2136
lfoot 9.5383 -0.923255
ltoes -23.0805
794
root -26.5542 17.6846 -6.71695 1122.33 -83.6792 -1125.8
lowerback 2.10354 -1.10531 5.46431
upperback 0.921713 -1.38247 0.596733
thorax -0.344835 -0.68942 -2.41406
lowerneck -6.36766 -0.317973 0.984243
upperneck 12.0483 -0.784259 1.16742
head 4.65877 -0.312514 0.149094
rclavicle 1.93567e-014 -4.67144e-015
rhumerus -33.3783 -9.63941 -83.6039
rradius 22.9038
rwrist 5.68242
rhand -20.3533 -10.0694
rfingers 7.12502
rthumb 5.99869 -39.9645
lclavicle 1.93567e-014 -4.67144e-015
lhumerus -35.514 10.4574 81.1033
lradius 23.8248
lwrist 14.5113
lhand -16.9512 12.0806
lfingers 7.12502
lthumb 9.28245 41.8562
rfemur -9.87387 -2.08591 30.2064
rtibia 34.6006
rfoot -2.75867 -6.69291
rtoes -4.79326
lfemur -3.57136 1.24432 -13.0163
ltibia 51.6647
lfoot 7.67976 -0.232246
ltoes -23.7919
795
root -26.6807 17.6887 -6.71308 1124.59 -83.6167 -1128.07
lowerback 2.18221 -1.04354 5.75616
upperback 0.945693 -1.29139 0.642975
thorax -0.361555 -0.644132 -2.53096
lowerneck -6.34089 -0.315612 0.994405
upperneck 12.0367 -0.78132 1.16474
head 4.65064 -0.310988 0.146849
rclavicle -1.41448e-014 2.57426e-014
rhumerus -33.2392 -9.22719 -83.8414
rradius 23.3124
rwrist 5.20582
rhand -20.3796 -10.1096
rfingers 7.12502
rthumb 5.9733 -40.0054
lclavicle -1.41448e-014 2.57426e-014
lhumerus -35.6262 10.4406 81.0751
lradius 23.9413
lwrist 14.6316
lhand -16.9523 12.0764
lfingers 7.12502
lthumb 9.28133 41.8521
rfemur -9.33884 -2.32551 30.4807
rtibia 34.4325
rfoot -2.76084 -6.69542
rtoes -5.40366
lfemur -4.92313 0.984093 -12.8909
ltibia 51.9679
lfoot 5.93432 0.417985
ltoes -24.2186
